# xmcd
#
# Track frame offsets: 
#        150
#        17352
#        37910
#        54721
#        78465
#        95029
#        121558
#        142497
#        159191
#        172443
#        187244
#
# Disc length: 3115 seconds
#
# Revision: 1
# Processed by: cddbd v1.5.2PL0 Copyright (c) Steve Scherf et al.
# Submitted via: ExactAudioCopy v0.99pb4
#
DISCID=950c290b
DTITLE=Daybreakdown - Shine Like Rust
DYEAR=2007
DGENRE=Blues Rock
TTITLE0=Rearview
TTITLE1=Shotgun
TTITLE2=Sometimes
TTITLE3=Candidate
TTITLE4=Lights
TTITLE5=One Track
TTITLE6=Keeping Time
TTITLE7=Just Move Along
TTITLE8=No Matter How It Comes
TTITLE9=Poorboy
TTITLE10=Anything At All
EXTD=
EXTT0=
EXTT1=
EXTT2=
EXTT3=
EXTT4=
EXTT5=
EXTT6=
EXTT7=
EXTT8=
EXTT9=
EXTT10=
PLAYORDER=
